<svg width="1440" height="220" viewBox="0 0 1440 220" fill="none" xmlns="http://www.w3.org/2000/svg">
<mask id="path-1-inside-1_653_1503" fill="white">
<path d="M0 32H1440V220H0V32Z"/>
</mask>
<path d="M0 32H1440V220H0V32Z" fill="white"/>
<path d="M1440 219H0V221H1440V219Z" fill="#E5E5E5" mask="url(#path-1-inside-1_653_1503)"/>
<path d="M97.5429 100.8C96.2571 103.671 96.0857 106.2 96.0857 107.186C96.0857 107.443 96.3 107.614 96.5143 107.614C97.7571 107.529 101.443 107.143 104.7 105.129C105.214 104.786 105.729 104.486 106.157 104.143C111.857 100.029 113.014 93.7286 113.186 92.1429C113.357 92.0143 113.443 91.9286 113.571 91.8H113.957C114.129 91.9286 114.214 92.0143 114.386 92.1857C114.514 93.6 115.329 98.7 120.043 102.986C120.171 103.114 120.343 103.114 120.514 103.071C120.729 102.986 120.943 102.857 121.2 102.686C121.457 102.557 121.457 102.214 121.243 102.043C116.614 97.9714 115.971 92.2714 115.929 92.0143C124.029 93.1714 127.286 99.0857 127.286 99C127.886 99.8571 127.971 100.157 128.143 100.5C128.143 100.5 129.386 102.557 129.857 105.471C129.9 105.729 129.686 105.986 129.386 105.943C128.057 105.729 126.857 105.343 125.957 105C125.829 104.957 125.657 104.957 125.571 105.043C125.357 105.214 125.143 105.386 124.929 105.514C124.671 105.686 124.714 106.114 125.014 106.2C126.471 106.843 128.657 107.486 131.186 107.571C131.443 107.571 131.614 107.357 131.614 107.143C131.4 102.429 129.129 98.9571 129.129 98.9571C128.871 98.4857 128.529 98.0143 128.143 97.5C128.143 97.5 124.157 91.4571 116.186 90.4286C115.971 90.3857 115.843 90.2143 115.843 90.0429C115.843 89.8286 115.843 89.6571 115.843 89.5286C115.843 89.4 116.057 89.3143 116.143 89.2714C121.971 88.4571 125.614 85.2 127.2 83.4C127.329 83.2714 127.329 83.0571 127.243 82.9286C127.114 82.7143 126.986 82.4571 126.857 82.2429C126.729 81.9857 126.386 81.9857 126.171 82.2C124.671 84.0429 121.414 86.9571 115.929 87.7286C115.971 87.4286 116.786 80.4857 122.871 76.4143C123.429 76.0714 123.943 75.7286 124.414 75.4714C124.414 75.4714 126.557 74.2286 129.386 73.8C129.643 73.7571 129.9 74.0143 129.857 74.2714C129.643 75.6857 129.214 76.8857 128.871 77.7857C128.829 77.9143 128.829 78.0857 128.914 78.1714C129.086 78.3857 129.257 78.6429 129.386 78.8571C129.557 79.1143 129.986 79.0714 130.114 78.7714C131.357 75.9429 131.529 73.4571 131.529 72.4714C131.529 72.2143 131.314 72.0429 131.1 72.0429C129.857 72.1286 126.171 72.5143 122.914 74.5286C122.357 74.8714 121.8 75.2143 121.457 75.5143C115.757 79.6286 114.6 85.9286 114.429 87.5143C114.257 87.6428 114.171 87.7286 114.043 87.8571H113.657C113.486 87.7286 113.4 87.6429 113.229 87.4714C113.1 86.0571 112.286 81 107.571 76.6714C107.443 76.5429 107.271 76.5429 107.1 76.6286C106.886 76.7571 106.629 76.8857 106.414 77.0143C106.157 77.1429 106.157 77.4857 106.371 77.6571C111 81.7286 111.643 87.4286 111.686 87.6857C103.586 86.5714 100.457 80.7429 100.371 80.6571C100.071 80.1857 99.7714 79.7143 99.4714 79.1571C99.4714 79.1571 98.2714 77.1429 97.7571 74.1857C97.9714 73.9714 98.0143 73.9286 98.2286 73.7143C99.5572 73.9286 100.757 74.3143 101.657 74.6571C101.786 74.7 101.957 74.7 102.043 74.5714C102.257 74.4 102.471 74.2286 102.686 74.1C102.943 73.9286 102.9 73.5 102.6 73.3714C101.143 72.7286 98.9571 72.0857 96.4286 72C96.1714 72 96 72.2143 96 72.4286C96.2143 77.1429 98.4857 80.6143 98.4857 80.6143C98.7429 81.0857 99.0857 81.5143 99.4714 82.0714C99.4714 82.0714 103.457 88.1143 111.429 89.1429C111.643 89.1857 111.771 89.3571 111.771 89.5286C111.771 89.7 111.771 89.8714 111.771 90C111.771 90.1714 111.6 90.3 111.514 90.3C105.686 91.0714 102.043 94.3714 100.457 96.1714C100.371 96.3 100.329 96.4286 100.371 96.6C100.457 96.8571 100.629 97.1143 100.757 97.3714C100.886 97.6286 101.229 97.6286 101.4 97.4143C102.9 95.6143 106.157 92.6143 111.686 91.8428C111.643 92.1428 110.829 99.0857 104.743 103.157C104.529 103.329 104.271 103.457 104.057 103.629C103.8 103.8 101.1 105.3 98.2286 105.771C97.9714 105.814 97.7143 105.557 97.7571 105.3C97.9714 103.843 98.4 102.6 98.7857 101.743C98.8286 101.614 98.8286 101.443 98.7429 101.357C98.5714 101.143 98.4 100.886 98.2714 100.671C98.0572 100.457 97.6714 100.5 97.5429 100.8ZM99.4714 100.414C100.286 101.486 101.314 102.471 102.129 103.2C102.257 103.329 102.471 103.329 102.6 103.243C102.814 103.114 103.071 102.986 103.286 102.857C103.5 102.729 103.543 102.386 103.329 102.214C101.614 100.757 100.414 98.9571 100.414 98.9571C100.114 98.5286 99.8143 98.0143 99.5143 97.4571C98.0143 94.5429 97.6286 91.8857 97.5857 90.0857C97.5857 89.3143 97.6286 88.5857 97.7143 87.9428C97.7571 87.8143 97.7571 87.7286 97.7571 87.7286C97.9714 86.1 98.3571 84.7714 98.7429 83.8286C98.7857 83.7 98.7857 83.5286 98.7 83.4429C98.5286 83.2714 98.4 83.0143 98.2286 82.8C98.0572 82.5429 97.6286 82.5857 97.5 82.8857C97.0286 84.0857 96.4714 85.7143 96.2143 87.7286C96.2143 87.7286 95.1857 93.2143 98.5714 98.9143C98.8286 99.5143 99.1714 100.029 99.4714 100.414ZM128.1 79.2C127.286 78.1286 126.257 77.1429 125.443 76.4143C125.314 76.2857 125.143 76.2857 124.971 76.3714C124.757 76.5 124.5 76.6286 124.286 76.7571C124.071 76.8857 124.029 77.2286 124.243 77.4C125.957 78.8571 127.157 80.6571 127.157 80.6571C127.457 81.0429 127.757 81.5571 128.057 82.1571C129.557 85.0714 129.943 87.7286 129.986 89.5286C129.986 90.3 129.943 91.0286 129.857 91.6714C129.814 91.8 129.814 91.8857 129.814 91.8857C129.6 93.5571 129.214 94.8857 128.829 95.8286C128.786 95.9571 128.786 96.1286 128.914 96.2571C129.086 96.4714 129.257 96.6857 129.386 96.9C129.557 97.1571 129.986 97.1143 130.114 96.8143C130.586 95.6143 131.143 93.9429 131.4 91.9286C131.4 91.9286 132.429 86.4429 129.043 80.7429C128.786 80.1857 128.443 79.6714 128.1 79.2ZM106.071 75.5571C106.243 75.4714 106.5 75.3 106.671 75.2143C112.5 72.4714 117.557 73.8 119.957 74.7857C120.086 74.8286 120.257 74.8286 120.343 74.7429C120.557 74.5714 120.771 74.4 121.029 74.2286C121.286 74.0571 121.243 73.6286 120.943 73.5C117.514 72 113.957 72 113.743 72C113.486 72 108.686 72 104.614 74.4857C104.143 74.7857 103.714 75.0857 103.243 75.4286C103.243 75.4286 101.871 76.4571 100.586 77.7857C100.457 77.9143 100.457 78.0857 100.543 78.2571C100.671 78.5143 100.8 78.7714 100.929 78.9857C101.057 79.2429 101.4 79.2429 101.571 79.0714C102.343 78.2143 103.414 77.1857 104.657 76.3714C105.129 76.0714 105.6 75.8143 106.071 75.5571ZM124.286 104.186C124.286 104.186 125.614 103.157 126.943 101.829C127.071 101.7 127.071 101.529 127.029 101.357C126.9 101.1 126.771 100.886 126.643 100.629C126.514 100.371 126.171 100.371 126 100.586C125.271 101.4 124.457 102.257 123.257 103.071C122.871 103.371 122.143 103.843 121.5 104.186C115.414 107.314 110.143 105.9 107.657 104.914C107.529 104.871 107.357 104.871 107.271 104.957C107.057 105.129 106.8 105.3 106.586 105.429C106.329 105.6 106.371 106.029 106.671 106.157C110.1 107.657 113.657 107.657 113.871 107.657C114.129 107.657 118.929 107.657 123 105.171C123.386 104.829 123.857 104.529 124.286 104.186ZM113.786 89.4C113.957 89.5714 114.043 89.6571 114.214 89.8286C114.043 90 113.957 90.0857 113.786 90.2143C113.571 90.2143 113.357 90.0429 113.357 89.7857C113.529 89.6571 113.614 89.5714 113.786 89.4Z" fill="black"/>
<path d="M407.6 190.2C404.54 190.2 402.56 188.36 402.42 185.58H405.18C405.34 186.76 406.26 187.54 407.6 187.54C408.78 187.54 409.6 187.1 409.6 186.14C409.6 185.36 409.14 184.92 408.16 184.66L405.8 184.02C403.66 183.44 402.6 181.94 402.6 179.88C402.6 177.08 404.8 175.8 407.24 175.8C410.04 175.8 411.78 177.44 412.08 179.82H409.32C409.08 178.88 408.1 178.46 407.2 178.46C406.08 178.46 405.28 178.9 405.28 179.88C405.28 180.7 405.92 181.06 406.68 181.26L408.96 181.88C411.12 182.46 412.28 183.78 412.28 186.14C412.28 188.66 410.64 190.2 407.6 190.2ZM423 181.6V176H425.68V190H423V184.26H417.8V190H415.12V176H417.8V181.6H423ZM439.424 185.02C439.424 188.12 437.504 190.2 434.144 190.2C430.784 190.2 428.864 188.12 428.864 185.02V180.98C428.864 177.88 430.784 175.8 434.144 175.8C437.504 175.8 439.424 177.88 439.424 180.98V185.02ZM436.744 185.02V180.98C436.744 179.36 435.604 178.46 434.144 178.46C432.684 178.46 431.544 179.36 431.544 180.98V185.02C431.544 186.64 432.684 187.54 434.144 187.54C435.604 187.54 436.744 186.64 436.744 185.02ZM445.289 183.04H448.329C449.809 183.04 450.489 181.92 450.489 180.84C450.489 179.76 449.809 178.66 448.329 178.66H445.289V183.04ZM445.289 185.7V190H442.609V176H448.329C451.649 176 453.169 178.28 453.169 180.84C453.169 183.38 451.649 185.7 448.329 185.7H445.289Z" fill="#252020"/>
<path d="M523.6 190.2C520.54 190.2 518.56 188.36 518.42 185.58H521.18C521.34 186.76 522.26 187.54 523.6 187.54C524.78 187.54 525.6 187.1 525.6 186.14C525.6 185.36 525.14 184.92 524.16 184.66L521.8 184.02C519.66 183.44 518.6 181.94 518.6 179.88C518.6 177.08 520.8 175.8 523.24 175.8C526.04 175.8 527.78 177.44 528.08 179.82H525.32C525.08 178.88 524.1 178.46 523.2 178.46C522.08 178.46 521.28 178.9 521.28 179.88C521.28 180.7 521.92 181.06 522.68 181.26L524.96 181.88C527.12 182.46 528.28 183.78 528.28 186.14C528.28 188.66 526.64 190.2 523.6 190.2ZM533.84 186.04V190H531.12V176H533.84V182.04L538.98 176H542.4L537.48 181.78L542.9 190H539.62L535.64 183.94L533.84 186.04ZM547.691 176V190H545.011V176H547.691ZM553.964 176V187.34H559.804V190H551.284V176H553.964ZM564.789 176V187.34H570.629V190H562.109V176H564.789ZM577.233 190.2C574.173 190.2 572.193 188.36 572.053 185.58H574.813C574.973 186.76 575.893 187.54 577.233 187.54C578.413 187.54 579.233 187.1 579.233 186.14C579.233 185.36 578.773 184.92 577.793 184.66L575.433 184.02C573.293 183.44 572.233 181.94 572.233 179.88C572.233 177.08 574.433 175.8 576.873 175.8C579.673 175.8 581.413 177.44 581.713 179.82H578.953C578.713 178.88 577.733 178.46 576.833 178.46C575.713 178.46 574.913 178.9 574.913 179.88C574.913 180.7 575.553 181.06 576.313 181.26L578.593 181.88C580.753 182.46 581.913 183.78 581.913 186.14C581.913 188.66 580.273 190.2 577.233 190.2Z" fill="#252020"/>
<path d="M652.6 190.2C649.54 190.2 647.56 188.36 647.42 185.58H650.18C650.34 186.76 651.26 187.54 652.6 187.54C653.78 187.54 654.6 187.1 654.6 186.14C654.6 185.36 654.14 184.92 653.16 184.66L650.8 184.02C648.66 183.44 647.6 181.94 647.6 179.88C647.6 177.08 649.8 175.8 652.24 175.8C655.04 175.8 656.78 177.44 657.08 179.82H654.32C654.08 178.88 653.1 178.46 652.2 178.46C651.08 178.46 650.28 178.9 650.28 179.88C650.28 180.7 650.92 181.06 651.68 181.26L653.96 181.88C656.12 182.46 657.28 183.78 657.28 186.14C657.28 188.66 655.64 190.2 652.6 190.2ZM669.36 178.66H665.46V190H662.7V178.66H658.8V176H669.36V178.66ZM681.612 185.02C681.612 188.12 679.692 190.2 676.332 190.2C672.972 190.2 671.052 188.12 671.052 185.02V180.98C671.052 177.88 672.972 175.8 676.332 175.8C679.692 175.8 681.612 177.88 681.612 180.98V185.02ZM678.932 185.02V180.98C678.932 179.36 677.792 178.46 676.332 178.46C674.872 178.46 673.732 179.36 673.732 180.98V185.02C673.732 186.64 674.872 187.54 676.332 187.54C677.792 187.54 678.932 186.64 678.932 185.02ZM689.116 184.24H687.476V190H684.796V176H690.696C693.536 176 695.116 177.6 695.116 180.12C695.116 182.2 694.056 183.64 692.096 184.1L695.576 190H692.496L689.116 184.24ZM692.436 180.16C692.436 179.18 691.776 178.66 690.756 178.66H687.476V181.64H690.756C691.776 181.64 692.436 181.12 692.436 180.16ZM700.839 176V190H698.159V176H700.839ZM707.113 178.66V181.6H712.953V184.26H707.113V187.34H712.953V190H704.433V176H712.953V178.66H707.113ZM720.534 190.2C717.474 190.2 715.494 188.36 715.354 185.58H718.114C718.274 186.76 719.194 187.54 720.534 187.54C721.714 187.54 722.534 187.1 722.534 186.14C722.534 185.36 722.074 184.92 721.094 184.66L718.734 184.02C716.594 183.44 715.534 181.94 715.534 179.88C715.534 177.08 717.734 175.8 720.174 175.8C722.974 175.8 724.714 177.44 725.014 179.82H722.254C722.014 178.88 721.034 178.46 720.134 178.46C719.014 178.46 718.214 178.9 718.214 179.88C718.214 180.7 718.854 181.06 719.614 181.26L721.894 181.88C724.054 182.46 725.214 183.78 725.214 186.14C725.214 188.66 723.574 190.2 720.534 190.2Z" fill="#252020"/>
<path d="M797.82 184.64L796.26 180.1L794.7 184.64H797.82ZM798.74 187.18H793.78L792.78 190H789.98L794.98 176H797.54L802.54 190H799.74L798.74 187.18ZM804.82 190V176H810.62C813.46 176 815.04 177.6 815.04 180.02C815.04 181.18 814.62 182.2 813.78 182.84C814.76 183.58 815.38 184.66 815.38 185.9C815.38 188.38 813.82 190 810.94 190H804.82ZM807.5 187.34H811.02C812.12 187.34 812.7 186.78 812.7 185.8C812.7 184.8 812.04 184.26 811.02 184.26H807.5V187.34ZM812.36 180.12C812.36 179.14 811.7 178.66 810.68 178.66H807.5V181.6H810.68C811.7 181.6 812.36 181.08 812.36 180.12ZM828.46 185.02C828.46 188.12 826.54 190.2 823.18 190.2C819.82 190.2 817.9 188.12 817.9 185.02V180.98C817.9 177.88 819.82 175.8 823.18 175.8C826.54 175.8 828.46 177.88 828.46 180.98V185.02ZM825.78 185.02V180.98C825.78 179.36 824.64 178.46 823.18 178.46C821.72 178.46 820.58 179.36 820.58 180.98V185.02C820.58 186.64 821.72 187.54 823.18 187.54C824.64 187.54 825.78 186.64 825.78 185.02ZM839.344 176H842.024V185.02C842.024 188.12 840.104 190.2 836.744 190.2C833.384 190.2 831.464 188.12 831.464 185.02V176H834.144V185.02C834.144 186.64 835.284 187.54 836.744 187.54C838.204 187.54 839.344 186.64 839.344 185.02V176ZM854.677 178.66H850.777V190H848.017V178.66H844.117V176H854.677V178.66Z" fill="#252020"/>
<path d="M927.74 185.32H930.44C930.32 188.26 928.42 190.2 925.16 190.2C921.8 190.2 919.88 188.12 919.88 185.02V180.98C919.88 177.88 921.8 175.8 925.16 175.8C928.42 175.8 930.32 177.74 930.44 180.68H927.74C927.6 179.26 926.52 178.46 925.16 178.46C923.7 178.46 922.56 179.36 922.56 180.98V185.02C922.56 186.64 923.7 187.54 925.16 187.54C926.52 187.54 927.6 186.76 927.74 185.32ZM943.569 185.02C943.569 188.12 941.649 190.2 938.289 190.2C934.929 190.2 933.009 188.12 933.009 185.02V180.98C933.009 177.88 934.929 175.8 938.289 175.8C941.649 175.8 943.569 177.88 943.569 180.98V185.02ZM940.889 185.02V180.98C940.889 179.36 939.749 178.46 938.289 178.46C936.829 178.46 935.689 179.36 935.689 180.98V185.02C935.689 186.64 936.829 187.54 938.289 187.54C939.749 187.54 940.889 186.64 940.889 185.02ZM957.313 176V190H954.633L949.433 180.98V190H946.753V176H949.433L954.633 185.02V176H957.313ZM970.157 178.66H966.257V190H963.497V178.66H959.597V176H970.157V178.66ZM978.047 184.64L976.487 180.1L974.927 184.64H978.047ZM978.967 187.18H974.007L973.007 190H970.207L975.207 176H977.767L982.767 190H979.967L978.967 187.18ZM992.31 185.32H995.01C994.89 188.26 992.99 190.2 989.73 190.2C986.37 190.2 984.45 188.12 984.45 185.02V180.98C984.45 177.88 986.37 175.8 989.73 175.8C992.99 175.8 994.89 177.74 995.01 180.68H992.31C992.17 179.26 991.09 178.46 989.73 178.46C988.27 178.46 987.13 179.36 987.13 180.98V185.02C987.13 186.64 988.27 187.54 989.73 187.54C991.09 187.54 992.17 186.76 992.31 185.32ZM1007.2 178.66H1003.3V190H1000.54V178.66H996.64V176H1007.2V178.66ZM1022.39 176H1025.07V185.02C1025.07 188.12 1023.15 190.2 1019.79 190.2C1016.43 190.2 1014.51 188.12 1014.51 185.02V176H1017.19V185.02C1017.19 186.64 1018.33 187.54 1019.79 187.54C1021.25 187.54 1022.39 186.64 1022.39 185.02V176ZM1032.78 190.2C1029.72 190.2 1027.74 188.36 1027.6 185.58H1030.36C1030.52 186.76 1031.44 187.54 1032.78 187.54C1033.96 187.54 1034.78 187.1 1034.78 186.14C1034.78 185.36 1034.32 184.92 1033.34 184.66L1030.98 184.02C1028.84 183.44 1027.78 181.94 1027.78 179.88C1027.78 177.08 1029.98 175.8 1032.42 175.8C1035.22 175.8 1036.96 177.44 1037.26 179.82H1034.5C1034.26 178.88 1033.28 178.46 1032.38 178.46C1031.26 178.46 1030.46 178.9 1030.46 179.88C1030.46 180.7 1031.1 181.06 1031.86 181.26L1034.14 181.88C1036.3 182.46 1037.46 183.78 1037.46 186.14C1037.46 188.66 1035.82 190.2 1032.78 190.2Z" fill="#252020"/>
<path d="M1111.5 98.9998C1116.75 98.9998 1121 94.7465 1121 89.4998C1121 84.2531 1116.75 79.9998 1111.5 79.9998C1106.25 79.9998 1102 84.2531 1102 89.4998C1102 94.7465 1106.25 98.9998 1111.5 98.9998Z" stroke="#292D32" stroke-width="1.40625" stroke-linecap="round" stroke-linejoin="round"/>
<path d="M1122 99.9998L1120 97.9998" stroke="#292D32" stroke-width="1.40625" stroke-linecap="round" stroke-linejoin="round"/>
<path d="M1160.62 98.8116C1160.28 98.9316 1159.72 98.9316 1159.38 98.8116C1156.48 97.8216 1150 93.6916 1150 86.6916C1150 83.6016 1152.49 81.1016 1155.56 81.1016C1157.38 81.1016 1158.99 81.9816 1160 83.3416C1161.01 81.9816 1162.63 81.1016 1164.44 81.1016C1167.51 81.1016 1170 83.6016 1170 86.6916C1170 93.6916 1163.52 97.8216 1160.62 98.8116Z" stroke="#292D32" stroke-width="1.5" stroke-linecap="round" stroke-linejoin="round"/>
<path d="M1204.4 84.5H1211.6C1215 84.5 1215.34 86.09 1215.57 88.03L1216.47 95.53C1216.76 97.99 1216 100 1212.5 100H1203.51C1200 100 1199.24 97.99 1199.54 95.53L1200.44 88.03C1200.66 86.09 1201 84.5 1204.4 84.5Z" stroke="#292D32" stroke-width="1.5" stroke-linecap="round" stroke-linejoin="round"/>
<path d="M1204 86V82.5C1204 81 1205 80 1206.5 80H1209.5C1211 80 1212 81 1212 82.5V86" stroke="#292D32" stroke-width="1.5" stroke-linecap="round" stroke-linejoin="round"/>
<path d="M1216.41 95.0312H1204" stroke="#292D32" stroke-width="1.5" stroke-linecap="round" stroke-linejoin="round"/>
<path d="M1256.16 88.87C1256.06 88.86 1255.94 88.86 1255.83 88.87C1253.45 88.79 1251.56 86.84 1251.56 84.44C1251.56 81.99 1253.54 80 1256 80C1258.45 80 1260.44 81.99 1260.44 84.44C1260.43 86.84 1258.54 88.79 1256.16 88.87Z" stroke="#292D32" stroke-width="1.5" stroke-linecap="round" stroke-linejoin="round"/>
<path d="M1251.16 92.56C1248.74 94.18 1248.74 96.82 1251.16 98.43C1253.91 100.27 1258.42 100.27 1261.17 98.43C1263.59 96.81 1263.59 94.17 1261.17 92.56C1258.43 90.73 1253.92 90.73 1251.16 92.56Z" stroke="#292D32" stroke-width="1.5" stroke-linecap="round" stroke-linejoin="round"/>
<path d="M1295.18 86.428V88.78H1299.86V90.908H1295.18V93.372H1299.86V95.5H1293.04V84.3H1299.86V86.428H1295.18ZM1311.13 84.3V95.5H1308.98L1304.82 88.284V95.5H1302.68V84.3H1304.82L1308.98 91.516V84.3H1311.13ZM1318.1 91.228V89.1H1322.32V91.516C1322.32 93.996 1320.79 95.66 1318.1 95.66C1315.41 95.66 1313.88 93.996 1313.88 91.516V88.284C1313.88 85.804 1315.41 84.14 1318.1 84.14C1320.63 84.14 1322.13 85.612 1322.31 87.836H1320.15C1319.96 86.828 1319.12 86.268 1318.1 86.268C1316.93 86.268 1316.02 86.988 1316.02 88.284V91.516C1316.02 92.812 1316.93 93.532 1318.1 93.532C1319.27 93.532 1320.18 92.812 1320.18 91.516V91.228H1318.1Z" fill="#252020"/>
<path d="M1330.72 87.9949L1335.07 92.3416C1335.58 92.8549 1336.42 92.8549 1336.93 92.3416L1341.28 87.9949" stroke="#292D32" stroke-miterlimit="10" stroke-linecap="round" stroke-linejoin="round"/>
<path d="M668.982 103V76.8182H675.31V97.8608H686.202V103H668.982ZM714.17 89.9091C714.17 92.7898 713.616 95.2315 712.508 97.2344C711.4 99.2372 709.9 100.759 708.008 101.798C706.124 102.838 704.011 103.358 701.667 103.358C699.315 103.358 697.197 102.834 695.313 101.786C693.43 100.737 691.934 99.2159 690.826 97.2216C689.727 95.2187 689.177 92.7812 689.177 89.9091C689.177 87.0284 689.727 84.5866 690.826 82.5838C691.934 80.581 693.43 79.0597 695.313 78.0199C697.197 76.9801 699.315 76.4602 701.667 76.4602C704.011 76.4602 706.124 76.9801 708.008 78.0199C709.9 79.0597 711.4 80.581 712.508 82.5838C713.616 84.5866 714.17 87.0284 714.17 89.9091ZM707.701 89.9091C707.701 88.2045 707.458 86.7642 706.972 85.5881C706.495 84.4119 705.805 83.5213 704.901 82.9162C704.006 82.3111 702.928 82.0085 701.667 82.0085C700.414 82.0085 699.336 82.3111 698.433 82.9162C697.529 83.5213 696.835 84.4119 696.349 85.5881C695.871 86.7642 695.633 88.2045 695.633 89.9091C695.633 91.6136 695.871 93.054 696.349 94.2301C696.835 95.4062 697.529 96.2969 698.433 96.902C699.336 97.5071 700.414 97.8097 701.667 97.8097C702.928 97.8097 704.006 97.5071 704.901 96.902C705.805 96.2969 706.495 95.4062 706.972 94.2301C707.458 93.054 707.701 91.6136 707.701 89.9091ZM736.046 85.3707C735.901 84.8338 735.688 84.3608 735.407 83.9517C735.126 83.5341 734.781 83.1804 734.371 82.8906C733.962 82.6009 733.494 82.3835 732.965 82.2386C732.437 82.0852 731.857 82.0085 731.227 82.0085C729.957 82.0085 728.857 82.3153 727.928 82.929C727.008 83.5426 726.296 84.4375 725.793 85.6136C725.29 86.7812 725.039 88.2003 725.039 89.8707C725.039 91.5497 725.282 92.9815 725.768 94.1662C726.254 95.3509 726.957 96.2543 727.877 96.8764C728.798 97.4986 729.914 97.8097 731.227 97.8097C732.386 97.8097 733.366 97.6222 734.167 97.2472C734.977 96.8636 735.59 96.3224 736.008 95.6236C736.425 94.9247 736.634 94.1023 736.634 93.1562L737.81 93.2969H731.444V88.6818H742.732V92.1463C742.732 94.4901 742.234 96.4972 741.237 98.1676C740.248 99.8381 738.884 101.121 737.146 102.016C735.415 102.911 733.425 103.358 731.175 103.358C728.678 103.358 726.484 102.817 724.592 101.734C722.7 100.652 721.225 99.1094 720.168 97.1065C719.112 95.0952 718.583 92.7088 718.583 89.9474C718.583 87.7997 718.903 85.8949 719.542 84.233C720.181 82.5625 721.072 81.1477 722.214 79.9886C723.364 78.8295 724.694 77.9517 726.202 77.3551C727.719 76.7585 729.352 76.4602 731.099 76.4602C732.616 76.4602 734.026 76.6776 735.33 77.1122C736.643 77.5469 737.802 78.1605 738.808 78.9531C739.822 79.7457 740.644 80.6875 741.275 81.7784C741.906 82.8693 742.298 84.0668 742.451 85.3707H736.046ZM772.174 89.9091C772.174 92.7898 771.62 95.2315 770.512 97.2344C769.404 99.2372 767.904 100.759 766.012 101.798C764.128 102.838 762.015 103.358 759.671 103.358C757.319 103.358 755.201 102.834 753.317 101.786C751.434 100.737 749.938 99.2159 748.83 97.2216C747.73 95.2187 747.181 92.7812 747.181 89.9091C747.181 87.0284 747.73 84.5866 748.83 82.5838C749.938 80.581 751.434 79.0597 753.317 78.0199C755.201 76.9801 757.319 76.4602 759.671 76.4602C762.015 76.4602 764.128 76.9801 766.012 78.0199C767.904 79.0597 769.404 80.581 770.512 82.5838C771.62 84.5866 772.174 87.0284 772.174 89.9091ZM765.705 89.9091C765.705 88.2045 765.462 86.7642 764.976 85.5881C764.499 84.4119 763.809 83.5213 762.905 82.9162C762.01 82.3111 760.932 82.0085 759.671 82.0085C758.418 82.0085 757.34 82.3111 756.436 82.9162C755.533 83.5213 754.838 84.4119 754.353 85.5881C753.875 86.7642 753.637 88.2045 753.637 89.9091C753.637 91.6136 753.875 93.054 754.353 94.2301C754.838 95.4062 755.533 96.2969 756.436 96.902C757.34 97.5071 758.418 97.8097 759.671 97.8097C760.932 97.8097 762.01 97.5071 762.905 96.902C763.809 96.2969 764.499 95.4062 764.976 94.2301C765.462 93.054 765.705 91.6136 765.705 89.9091Z" fill="black"/>
<rect width="1440" height="32" fill="black"/>
<path d="M288.667 15.2615V10.7281C288.667 9.72812 288.24 9.32812 287.18 9.32812H284.487C283.427 9.32812 283 9.72812 283 10.7281V15.2615C283 16.2615 283.427 16.6615 284.487 16.6615H287.18C288.24 16.6615 288.667 16.2615 288.667 15.2615Z" stroke="#EB4C6B" stroke-linecap="round" stroke-linejoin="round"/>
<path d="M288.667 21.2719V20.0719C288.667 19.0719 288.24 18.6719 287.18 18.6719H284.487C283.427 18.6719 283 19.0719 283 20.0719V21.2719C283 22.2719 283.427 22.6719 284.487 22.6719H287.18C288.24 22.6719 288.667 22.2719 288.667 21.2719Z" stroke="#EB4C6B" stroke-linecap="round" stroke-linejoin="round"/>
<path d="M281.003 16.7281V21.2615C281.003 22.2615 280.576 22.6615 279.516 22.6615H276.823C275.763 22.6615 275.336 22.2615 275.336 21.2615V16.7281C275.336 15.7281 275.763 15.3281 276.823 15.3281H279.516C280.576 15.3281 281.003 15.7281 281.003 16.7281Z" stroke="#EB4C6B" stroke-linecap="round" stroke-linejoin="round"/>
<path d="M281.003 10.7281V11.9281C281.003 12.9281 280.576 13.3281 279.516 13.3281H276.823C275.763 13.3281 275.336 12.9281 275.336 11.9281V10.7281C275.336 9.72812 275.763 9.32812 276.823 9.32812H279.516C280.576 9.32812 281.003 9.72812 281.003 10.7281Z" stroke="#EB4C6B" stroke-linecap="round" stroke-linejoin="round"/>
<path d="M300.96 20V11.6H301.884V19.088H305.736V20H300.96ZM311.598 17.708V16.052C311.598 15.02 310.878 14.504 310.074 14.504C309.27 14.504 308.55 15.02 308.55 16.052V17.708C308.55 18.74 309.27 19.256 310.074 19.256C310.878 19.256 311.598 18.74 311.598 17.708ZM312.498 16.064V17.696C312.498 19.52 311.226 20.12 310.074 20.12C308.922 20.12 307.65 19.52 307.65 17.696V16.064C307.65 14.24 308.922 13.64 310.074 13.64C311.226 13.64 312.498 14.24 312.498 16.064ZM316.034 13.808V14.456C316.346 13.952 316.994 13.7 317.558 13.7H317.954V14.564H317.558C316.754 14.564 316.034 15.08 316.034 16.112V20H315.134V13.808H316.034ZM322.293 19.256C323.001 19.256 323.637 18.86 323.781 18.056H324.705C324.549 19.604 323.373 20.12 322.293 20.12C321.141 20.12 319.869 19.52 319.869 17.696V16.064C319.869 14.24 321.141 13.64 322.293 13.64C323.445 13.64 324.717 14.24 324.717 16.064V17.108H320.769V17.708C320.769 18.74 321.489 19.256 322.293 19.256ZM323.817 16.28V16.052C323.817 15.02 323.097 14.504 322.293 14.504C321.489 14.504 320.769 15.02 320.769 16.052V16.28H323.817ZM335.731 20H334.831V15.98C334.831 15.056 334.111 14.504 333.403 14.504C332.671 14.504 331.963 15.056 331.963 16.052V20H331.063V15.98C331.063 15.056 330.343 14.504 329.635 14.504C328.903 14.504 328.195 15.056 328.195 16.052V20H327.295V13.808H328.195V14.396C328.495 13.892 329.179 13.64 329.635 13.64C330.331 13.64 331.087 13.928 331.507 14.612C331.927 13.928 332.695 13.64 333.391 13.64C334.507 13.64 335.731 14.312 335.731 16.064V20ZM343.038 11.6V12.764H342.138V11.6H343.038ZM343.038 13.808V20H342.138V13.808H343.038ZM348.258 20.12C347.694 20.12 347.046 19.868 346.734 19.364V22.208H345.834V13.808H346.734V14.396C347.046 13.892 347.694 13.64 348.258 13.64C349.41 13.64 350.682 14.24 350.682 16.064V17.696C350.682 19.52 349.41 20.12 348.258 20.12ZM349.782 17.708V16.052C349.782 15.02 349.062 14.504 348.258 14.504C347.454 14.504 346.734 15.02 346.734 16.052V17.708C346.734 18.74 347.454 19.256 348.258 19.256C349.062 19.256 349.782 18.74 349.782 17.708ZM357.394 15.62H356.47C356.362 14.9 355.882 14.504 355.114 14.504C354.442 14.504 353.95 14.84 353.95 15.404C353.95 15.92 354.298 16.148 354.802 16.268L355.966 16.556C356.902 16.784 357.55 17.252 357.55 18.392C357.55 19.616 356.626 20.12 355.366 20.12C354.07 20.12 352.978 19.52 352.882 18.02H353.806C353.89 18.896 354.538 19.256 355.366 19.256C356.23 19.256 356.626 18.908 356.638 18.368C356.638 17.972 356.458 17.624 355.774 17.456L354.562 17.156C353.89 17 353.038 16.544 353.038 15.44C353.038 14.3 353.986 13.64 355.126 13.64C356.374 13.64 357.298 14.24 357.394 15.62ZM362.267 20.12C361.247 20.12 359.879 19.568 359.879 17.732V13.808H360.779V17.672C360.779 18.776 361.535 19.256 362.267 19.256C363.023 19.256 363.755 18.728 363.755 17.708V13.808H364.655V20H363.755V19.364C363.443 19.856 362.795 20.12 362.267 20.12ZM375.891 20H374.991V15.98C374.991 15.056 374.271 14.504 373.563 14.504C372.831 14.504 372.123 15.056 372.123 16.052V20H371.223V15.98C371.223 15.056 370.503 14.504 369.795 14.504C369.063 14.504 368.355 15.056 368.355 16.052V20H367.455V13.808H368.355V14.396C368.655 13.892 369.339 13.64 369.795 13.64C370.491 13.64 371.247 13.928 371.667 14.612C372.087 13.928 372.855 13.64 373.551 13.64C374.667 13.64 375.891 14.312 375.891 16.064V20ZM384.554 20.12C383.402 20.12 382.13 19.52 382.13 17.696V16.064C382.13 14.24 383.402 13.64 384.554 13.64C385.118 13.64 385.766 13.892 386.078 14.396V11.6H386.978V20H386.078V19.364C385.766 19.868 385.118 20.12 384.554 20.12ZM383.03 16.052V17.708C383.03 18.74 383.75 19.256 384.554 19.256C385.358 19.256 386.078 18.74 386.078 17.708V16.052C386.078 15.02 385.358 14.504 384.554 14.504C383.75 14.504 383.03 15.02 383.03 16.052ZM393.559 17.708V16.052C393.559 15.02 392.839 14.504 392.035 14.504C391.231 14.504 390.511 15.02 390.511 16.052V17.708C390.511 18.74 391.231 19.256 392.035 19.256C392.839 19.256 393.559 18.74 393.559 17.708ZM394.459 16.064V17.696C394.459 19.52 393.187 20.12 392.035 20.12C390.883 20.12 389.611 19.52 389.611 17.696V16.064C389.611 14.24 390.883 13.64 392.035 13.64C393.187 13.64 394.459 14.24 394.459 16.064ZM397.971 11.6V18.596C397.971 18.992 398.115 19.136 398.547 19.136H398.739V20H398.547C397.395 20 397.071 19.58 397.071 18.524V11.6H397.971ZM404.922 17.708V16.052C404.922 15.02 404.202 14.504 403.398 14.504C402.594 14.504 401.874 15.02 401.874 16.052V17.708C401.874 18.74 402.594 19.256 403.398 19.256C404.202 19.256 404.922 18.74 404.922 17.708ZM405.822 16.064V17.696C405.822 19.52 404.55 20.12 403.398 20.12C402.246 20.12 400.974 19.52 400.974 17.696V16.064C400.974 14.24 402.246 13.64 403.398 13.64C404.55 13.64 405.822 14.24 405.822 16.064ZM409.359 13.808V14.456C409.671 13.952 410.319 13.7 410.883 13.7H411.279V14.564H410.883C410.079 14.564 409.359 15.08 409.359 16.112V20H408.459V13.808H409.359Z" fill="#EB4C6B"/>
<path d="M665.667 15.2615V10.7281C665.667 9.72812 665.24 9.32812 664.18 9.32812H661.487C660.427 9.32812 660 9.72812 660 10.7281V15.2615C660 16.2615 660.427 16.6615 661.487 16.6615H664.18C665.24 16.6615 665.667 16.2615 665.667 15.2615Z" stroke="#EB4C6B" stroke-linecap="round" stroke-linejoin="round"/>
<path d="M665.667 21.2719V20.0719C665.667 19.0719 665.24 18.6719 664.18 18.6719H661.487C660.427 18.6719 660 19.0719 660 20.0719V21.2719C660 22.2719 660.427 22.6719 661.487 22.6719H664.18C665.24 22.6719 665.667 22.2719 665.667 21.2719Z" stroke="#EB4C6B" stroke-linecap="round" stroke-linejoin="round"/>
<path d="M658.003 16.7281V21.2615C658.003 22.2615 657.576 22.6615 656.516 22.6615H653.823C652.763 22.6615 652.336 22.2615 652.336 21.2615V16.7281C652.336 15.7281 652.763 15.3281 653.823 15.3281H656.516C657.576 15.3281 658.003 15.7281 658.003 16.7281Z" stroke="#EB4C6B" stroke-linecap="round" stroke-linejoin="round"/>
<path d="M658.003 10.7281V11.9281C658.003 12.9281 657.576 13.3281 656.516 13.3281H653.823C652.763 13.3281 652.336 12.9281 652.336 11.9281V10.7281C652.336 9.72812 652.763 9.32812 653.823 9.32812H656.516C657.576 9.32812 658.003 9.72812 658.003 10.7281Z" stroke="#EB4C6B" stroke-linecap="round" stroke-linejoin="round"/>
<path d="M677.96 20V11.6H678.884V19.088H682.736V20H677.96ZM688.598 17.708V16.052C688.598 15.02 687.878 14.504 687.074 14.504C686.27 14.504 685.55 15.02 685.55 16.052V17.708C685.55 18.74 686.27 19.256 687.074 19.256C687.878 19.256 688.598 18.74 688.598 17.708ZM689.498 16.064V17.696C689.498 19.52 688.226 20.12 687.074 20.12C685.922 20.12 684.65 19.52 684.65 17.696V16.064C684.65 14.24 685.922 13.64 687.074 13.64C688.226 13.64 689.498 14.24 689.498 16.064ZM693.034 13.808V14.456C693.346 13.952 693.994 13.7 694.558 13.7H694.954V14.564H694.558C693.754 14.564 693.034 15.08 693.034 16.112V20H692.134V13.808H693.034ZM699.293 19.256C700.001 19.256 700.637 18.86 700.781 18.056H701.705C701.549 19.604 700.373 20.12 699.293 20.12C698.141 20.12 696.869 19.52 696.869 17.696V16.064C696.869 14.24 698.141 13.64 699.293 13.64C700.445 13.64 701.717 14.24 701.717 16.064V17.108H697.769V17.708C697.769 18.74 698.489 19.256 699.293 19.256ZM700.817 16.28V16.052C700.817 15.02 700.097 14.504 699.293 14.504C698.489 14.504 697.769 15.02 697.769 16.052V16.28H700.817ZM712.731 20H711.831V15.98C711.831 15.056 711.111 14.504 710.403 14.504C709.671 14.504 708.963 15.056 708.963 16.052V20H708.063V15.98C708.063 15.056 707.343 14.504 706.635 14.504C705.903 14.504 705.195 15.056 705.195 16.052V20H704.295V13.808H705.195V14.396C705.495 13.892 706.179 13.64 706.635 13.64C707.331 13.64 708.087 13.928 708.507 14.612C708.927 13.928 709.695 13.64 710.391 13.64C711.507 13.64 712.731 14.312 712.731 16.064V20ZM720.038 11.6V12.764H719.138V11.6H720.038ZM720.038 13.808V20H719.138V13.808H720.038ZM725.258 20.12C724.694 20.12 724.046 19.868 723.734 19.364V22.208H722.834V13.808H723.734V14.396C724.046 13.892 724.694 13.64 725.258 13.64C726.41 13.64 727.682 14.24 727.682 16.064V17.696C727.682 19.52 726.41 20.12 725.258 20.12ZM726.782 17.708V16.052C726.782 15.02 726.062 14.504 725.258 14.504C724.454 14.504 723.734 15.02 723.734 16.052V17.708C723.734 18.74 724.454 19.256 725.258 19.256C726.062 19.256 726.782 18.74 726.782 17.708ZM734.394 15.62H733.47C733.362 14.9 732.882 14.504 732.114 14.504C731.442 14.504 730.95 14.84 730.95 15.404C730.95 15.92 731.298 16.148 731.802 16.268L732.966 16.556C733.902 16.784 734.55 17.252 734.55 18.392C734.55 19.616 733.626 20.12 732.366 20.12C731.07 20.12 729.978 19.52 729.882 18.02H730.806C730.89 18.896 731.538 19.256 732.366 19.256C733.23 19.256 733.626 18.908 733.638 18.368C733.638 17.972 733.458 17.624 732.774 17.456L731.562 17.156C730.89 17 730.038 16.544 730.038 15.44C730.038 14.3 730.986 13.64 732.126 13.64C733.374 13.64 734.298 14.24 734.394 15.62ZM739.267 20.12C738.247 20.12 736.879 19.568 736.879 17.732V13.808H737.779V17.672C737.779 18.776 738.535 19.256 739.267 19.256C740.023 19.256 740.755 18.728 740.755 17.708V13.808H741.655V20H740.755V19.364C740.443 19.856 739.795 20.12 739.267 20.12ZM752.891 20H751.991V15.98C751.991 15.056 751.271 14.504 750.563 14.504C749.831 14.504 749.123 15.056 749.123 16.052V20H748.223V15.98C748.223 15.056 747.503 14.504 746.795 14.504C746.063 14.504 745.355 15.056 745.355 16.052V20H744.455V13.808H745.355V14.396C745.655 13.892 746.339 13.64 746.795 13.64C747.491 13.64 748.247 13.928 748.667 14.612C749.087 13.928 749.855 13.64 750.551 13.64C751.667 13.64 752.891 14.312 752.891 16.064V20ZM761.554 20.12C760.402 20.12 759.13 19.52 759.13 17.696V16.064C759.13 14.24 760.402 13.64 761.554 13.64C762.118 13.64 762.766 13.892 763.078 14.396V11.6H763.978V20H763.078V19.364C762.766 19.868 762.118 20.12 761.554 20.12ZM760.03 16.052V17.708C760.03 18.74 760.75 19.256 761.554 19.256C762.358 19.256 763.078 18.74 763.078 17.708V16.052C763.078 15.02 762.358 14.504 761.554 14.504C760.75 14.504 760.03 15.02 760.03 16.052ZM770.559 17.708V16.052C770.559 15.02 769.839 14.504 769.035 14.504C768.231 14.504 767.511 15.02 767.511 16.052V17.708C767.511 18.74 768.231 19.256 769.035 19.256C769.839 19.256 770.559 18.74 770.559 17.708ZM771.459 16.064V17.696C771.459 19.52 770.187 20.12 769.035 20.12C767.883 20.12 766.611 19.52 766.611 17.696V16.064C766.611 14.24 767.883 13.64 769.035 13.64C770.187 13.64 771.459 14.24 771.459 16.064ZM774.971 11.6V18.596C774.971 18.992 775.115 19.136 775.547 19.136H775.739V20H775.547C774.395 20 774.071 19.58 774.071 18.524V11.6H774.971ZM781.922 17.708V16.052C781.922 15.02 781.202 14.504 780.398 14.504C779.594 14.504 778.874 15.02 778.874 16.052V17.708C778.874 18.74 779.594 19.256 780.398 19.256C781.202 19.256 781.922 18.74 781.922 17.708ZM782.822 16.064V17.696C782.822 19.52 781.55 20.12 780.398 20.12C779.246 20.12 777.974 19.52 777.974 17.696V16.064C777.974 14.24 779.246 13.64 780.398 13.64C781.55 13.64 782.822 14.24 782.822 16.064ZM786.359 13.808V14.456C786.671 13.952 787.319 13.7 787.883 13.7H788.279V14.564H787.883C787.079 14.564 786.359 15.08 786.359 16.112V20H785.459V13.808H786.359Z" fill="#EB4C6B"/>
<path d="M1042.67 15.2615V10.7281C1042.67 9.72812 1042.24 9.32812 1041.18 9.32812H1038.49C1037.43 9.32812 1037 9.72812 1037 10.7281V15.2615C1037 16.2615 1037.43 16.6615 1038.49 16.6615H1041.18C1042.24 16.6615 1042.67 16.2615 1042.67 15.2615Z" stroke="#EB4C6B" stroke-linecap="round" stroke-linejoin="round"/>
<path d="M1042.67 21.2719V20.0719C1042.67 19.0719 1042.24 18.6719 1041.18 18.6719H1038.49C1037.43 18.6719 1037 19.0719 1037 20.0719V21.2719C1037 22.2719 1037.43 22.6719 1038.49 22.6719H1041.18C1042.24 22.6719 1042.67 22.2719 1042.67 21.2719Z" stroke="#EB4C6B" stroke-linecap="round" stroke-linejoin="round"/>
<path d="M1035 16.7281V21.2615C1035 22.2615 1034.58 22.6615 1033.52 22.6615H1030.82C1029.76 22.6615 1029.34 22.2615 1029.34 21.2615V16.7281C1029.34 15.7281 1029.76 15.3281 1030.82 15.3281H1033.52C1034.58 15.3281 1035 15.7281 1035 16.7281Z" stroke="#EB4C6B" stroke-linecap="round" stroke-linejoin="round"/>
<path d="M1035 10.7281V11.9281C1035 12.9281 1034.58 13.3281 1033.52 13.3281H1030.82C1029.76 13.3281 1029.34 12.9281 1029.34 11.9281V10.7281C1029.34 9.72812 1029.76 9.32812 1030.82 9.32812H1033.52C1034.58 9.32812 1035 9.72812 1035 10.7281Z" stroke="#EB4C6B" stroke-linecap="round" stroke-linejoin="round"/>
<path d="M1054.96 20V11.6H1055.88V19.088H1059.74V20H1054.96ZM1065.6 17.708V16.052C1065.6 15.02 1064.88 14.504 1064.07 14.504C1063.27 14.504 1062.55 15.02 1062.55 16.052V17.708C1062.55 18.74 1063.27 19.256 1064.07 19.256C1064.88 19.256 1065.6 18.74 1065.6 17.708ZM1066.5 16.064V17.696C1066.5 19.52 1065.23 20.12 1064.07 20.12C1062.92 20.12 1061.65 19.52 1061.65 17.696V16.064C1061.65 14.24 1062.92 13.64 1064.07 13.64C1065.23 13.64 1066.5 14.24 1066.5 16.064ZM1070.03 13.808V14.456C1070.35 13.952 1070.99 13.7 1071.56 13.7H1071.95V14.564H1071.56C1070.75 14.564 1070.03 15.08 1070.03 16.112V20H1069.13V13.808H1070.03ZM1076.29 19.256C1077 19.256 1077.64 18.86 1077.78 18.056H1078.7C1078.55 19.604 1077.37 20.12 1076.29 20.12C1075.14 20.12 1073.87 19.52 1073.87 17.696V16.064C1073.87 14.24 1075.14 13.64 1076.29 13.64C1077.44 13.64 1078.72 14.24 1078.72 16.064V17.108H1074.77V17.708C1074.77 18.74 1075.49 19.256 1076.29 19.256ZM1077.82 16.28V16.052C1077.82 15.02 1077.1 14.504 1076.29 14.504C1075.49 14.504 1074.77 15.02 1074.77 16.052V16.28H1077.82ZM1089.73 20H1088.83V15.98C1088.83 15.056 1088.11 14.504 1087.4 14.504C1086.67 14.504 1085.96 15.056 1085.96 16.052V20H1085.06V15.98C1085.06 15.056 1084.34 14.504 1083.63 14.504C1082.9 14.504 1082.19 15.056 1082.19 16.052V20H1081.29V13.808H1082.19V14.396C1082.49 13.892 1083.18 13.64 1083.63 13.64C1084.33 13.64 1085.09 13.928 1085.51 14.612C1085.93 13.928 1086.69 13.64 1087.39 13.64C1088.51 13.64 1089.73 14.312 1089.73 16.064V20ZM1097.04 11.6V12.764H1096.14V11.6H1097.04ZM1097.04 13.808V20H1096.14V13.808H1097.04ZM1102.26 20.12C1101.69 20.12 1101.05 19.868 1100.73 19.364V22.208H1099.83V13.808H1100.73V14.396C1101.05 13.892 1101.69 13.64 1102.26 13.64C1103.41 13.64 1104.68 14.24 1104.68 16.064V17.696C1104.68 19.52 1103.41 20.12 1102.26 20.12ZM1103.78 17.708V16.052C1103.78 15.02 1103.06 14.504 1102.26 14.504C1101.45 14.504 1100.73 15.02 1100.73 16.052V17.708C1100.73 18.74 1101.45 19.256 1102.26 19.256C1103.06 19.256 1103.78 18.74 1103.78 17.708ZM1111.39 15.62H1110.47C1110.36 14.9 1109.88 14.504 1109.11 14.504C1108.44 14.504 1107.95 14.84 1107.95 15.404C1107.95 15.92 1108.3 16.148 1108.8 16.268L1109.97 16.556C1110.9 16.784 1111.55 17.252 1111.55 18.392C1111.55 19.616 1110.63 20.12 1109.37 20.12C1108.07 20.12 1106.98 19.52 1106.88 18.02H1107.81C1107.89 18.896 1108.54 19.256 1109.37 19.256C1110.23 19.256 1110.63 18.908 1110.64 18.368C1110.64 17.972 1110.46 17.624 1109.77 17.456L1108.56 17.156C1107.89 17 1107.04 16.544 1107.04 15.44C1107.04 14.3 1107.99 13.64 1109.13 13.64C1110.37 13.64 1111.3 14.24 1111.39 15.62ZM1116.27 20.12C1115.25 20.12 1113.88 19.568 1113.88 17.732V13.808H1114.78V17.672C1114.78 18.776 1115.53 19.256 1116.27 19.256C1117.02 19.256 1117.75 18.728 1117.75 17.708V13.808H1118.65V20H1117.75V19.364C1117.44 19.856 1116.79 20.12 1116.27 20.12ZM1129.89 20H1128.99V15.98C1128.99 15.056 1128.27 14.504 1127.56 14.504C1126.83 14.504 1126.12 15.056 1126.12 16.052V20H1125.22V15.98C1125.22 15.056 1124.5 14.504 1123.79 14.504C1123.06 14.504 1122.35 15.056 1122.35 16.052V20H1121.45V13.808H1122.35V14.396C1122.65 13.892 1123.34 13.64 1123.79 13.64C1124.49 13.64 1125.25 13.928 1125.67 14.612C1126.09 13.928 1126.85 13.64 1127.55 13.64C1128.67 13.64 1129.89 14.312 1129.89 16.064V20ZM1138.55 20.12C1137.4 20.12 1136.13 19.52 1136.13 17.696V16.064C1136.13 14.24 1137.4 13.64 1138.55 13.64C1139.12 13.64 1139.77 13.892 1140.08 14.396V11.6H1140.98V20H1140.08V19.364C1139.77 19.868 1139.12 20.12 1138.55 20.12ZM1137.03 16.052V17.708C1137.03 18.74 1137.75 19.256 1138.55 19.256C1139.36 19.256 1140.08 18.74 1140.08 17.708V16.052C1140.08 15.02 1139.36 14.504 1138.55 14.504C1137.75 14.504 1137.03 15.02 1137.03 16.052ZM1147.56 17.708V16.052C1147.56 15.02 1146.84 14.504 1146.03 14.504C1145.23 14.504 1144.51 15.02 1144.51 16.052V17.708C1144.51 18.74 1145.23 19.256 1146.03 19.256C1146.84 19.256 1147.56 18.74 1147.56 17.708ZM1148.46 16.064V17.696C1148.46 19.52 1147.19 20.12 1146.03 20.12C1144.88 20.12 1143.61 19.52 1143.61 17.696V16.064C1143.61 14.24 1144.88 13.64 1146.03 13.64C1147.19 13.64 1148.46 14.24 1148.46 16.064ZM1151.97 11.6V18.596C1151.97 18.992 1152.12 19.136 1152.55 19.136H1152.74V20H1152.55C1151.4 20 1151.07 19.58 1151.07 18.524V11.6H1151.97ZM1158.92 17.708V16.052C1158.92 15.02 1158.2 14.504 1157.4 14.504C1156.59 14.504 1155.87 15.02 1155.87 16.052V17.708C1155.87 18.74 1156.59 19.256 1157.4 19.256C1158.2 19.256 1158.92 18.74 1158.92 17.708ZM1159.82 16.064V17.696C1159.82 19.52 1158.55 20.12 1157.4 20.12C1156.25 20.12 1154.97 19.52 1154.97 17.696V16.064C1154.97 14.24 1156.25 13.64 1157.4 13.64C1158.55 13.64 1159.82 14.24 1159.82 16.064ZM1163.36 13.808V14.456C1163.67 13.952 1164.32 13.7 1164.88 13.7H1165.28V14.564H1164.88C1164.08 14.564 1163.36 15.08 1163.36 16.112V20H1162.46V13.808H1163.36Z" fill="#EB4C6B"/>
</svg>
